<?xml version="1.0" standalone="no"?>
<!DOCTYPE svg PUBLIC "-//W3C//DTD SVG 20010904//EN"
 "http://www.w3.org/TR/2001/REC-SVG-20010904/DTD/svg10.dtd">
<svg version="1.0" xmlns="http://www.w3.org/2000/svg"
 width="512.000000pt" height="512.000000pt" viewBox="0 0 512.000000 512.000000"
 preserveAspectRatio="xMidYMid meet">
<metadata>
Created by potrace 1.11, written by Peter Selinger 2001-2013
</metadata>
<g transform="translate(0.000000,512.000000) scale(0.100000,-0.100000)"
fill="#000000" stroke="none">
<path d="M2637 4803 c-5 -4 -43 -14 -69 -17 -9 -1 -23 -8 -31 -15 -9 -7 -25
-13 -36 -14 -11 -1 -23 -7 -25 -14 -3 -7 -12 -13 -20 -13 -17 0 -140 -121
-160 -158 -33 -60 -58 -116 -62 -136 -13 -64 -17 -96 -16 -141 2 -72 9 -132
20 -152 6 -10 11 -22 12 -28 8 -33 23 -65 31 -65 5 0 9 -5 9 -12 0 -9 69 -107
90 -128 45 -45 58 -162 27 -237 -19 -43 -94 -129 -104 -119 -2 2 -39 -13 -81
-34 -42 -20 -95 -43 -117 -50 -43 -15 -211 -21 -235 -9 -8 4 -30 13 -49 20
-18 7 -48 23 -67 35 -19 13 -34 21 -34 18 0 -3 -24 19 -54 48 -30 29 -52 56
-50 59 2 4 -3 9 -11 13 -8 3 -15 12 -15 21 0 8 -5 15 -11 15 -5 0 -7 5 -4 10
3 6 1 10 -5 10 -7 0 -10 7 -6 15 3 8 1 15 -4 15 -6 0 -10 7 -10 15 0 8 -4 15
-10 15 -5 0 -9 4 -7 9 3 10 -45 90 -55 91 -4 0 -13 6 -20 13 -27 27 -94 64
-139 76 -46 13 -144 11 -166 -2 -7 -5 -13 -5 -13 -2 0 14 -115 -59 -144 -91
-46 -50 -56 -63 -56 -68 0 -3 -5 -17 -12 -33 -15 -37 -19 -52 -22 -88 -1 -17
-5 -36 -9 -42 -4 -6 -3 -14 3 -18 6 -4 8 -10 5 -15 -7 -12 26 -130 37 -130 4
0 8 -6 8 -12 0 -17 64 -88 78 -88 7 0 12 -4 12 -10 0 -5 7 -10 15 -10 8 0 15
-4 15 -8 0 -9 63 -34 95 -38 11 -1 20 -3 20 -4 0 -1 10 -3 23 -6 82 -15 122
-26 122 -33 0 -4 19 -16 43 -26 52 -23 149 -121 175 -178 38 -82 41 -91 46
-170 3 -33 7 -61 9 -64 3 -2 -1 -21 -9 -40 -9 -19 -13 -38 -10 -40 3 -3 1 -13
-4 -22 -5 -10 -11 -36 -13 -58 -6 -46 -30 -103 -55 -127 -32 -30 -81 -67 -89
-67 -4 1 -21 -2 -38 -5 -16 -3 -39 -6 -50 -8 -35 -5 -145 30 -145 47 0 5 -4 6
-9 2 -5 -3 -12 -1 -16 5 -4 6 -11 8 -16 5 -5 -4 -9 -1 -9 4 0 6 -9 11 -20 11
-11 0 -20 4 -20 8 0 4 -8 8 -17 9 -25 1 -65 11 -71 18 -3 2 -11 0 -19 -6 -7
-7 -13 -7 -13 -2 0 11 -96 10 -140 -1 -14 -3 -38 -9 -55 -12 -16 -3 -32 -10
-36 -16 -4 -6 -12 -7 -18 -4 -6 4 -11 2 -11 -4 0 -6 -5 -8 -10 -5 -6 3 -10 3
-10 -2 0 -4 -13 -14 -30 -21 -44 -20 -142 -119 -176 -177 -16 -27 -29 -52 -29
-55 0 -3 -3 -9 -6 -15 -16 -27 -33 -96 -35 -150 -2 -33 -4 -62 -5 -65 -1 -3 0
-9 1 -15 3 -16 12 -79 13 -92 0 -7 5 -13 10 -13 6 0 8 -3 4 -6 -3 -4 0 -19 9
-35 8 -16 15 -32 15 -36 1 -16 58 -100 91 -133 49 -51 95 -89 101 -84 2 2 10
-2 17 -11 7 -8 20 -15 29 -15 9 0 26 -7 37 -15 12 -8 24 -11 28 -8 3 3 6 2 6
-3 0 -8 41 -15 108 -18 12 -1 22 -5 22 -11 0 -7 3 -7 8 0 4 6 27 11 52 11 92
3 157 23 223 67 15 10 27 15 27 12 0 -4 6 0 13 7 8 7 29 27 48 43 19 17 48 48
64 70 68 90 128 127 214 130 92 3 155 -32 216 -119 31 -45 74 -94 148 -169 37
-38 67 -75 67 -83 0 -8 3 -14 8 -14 8 0 32 -50 37 -78 2 -9 4 -17 5 -17 6 0
14 -72 13 -130 0 -65 -2 -81 -18 -138 -17 -61 -67 -138 -135 -209 -41 -44 -75
-83 -75 -89 0 -5 -5 -13 -10 -17 -41 -27 -53 -226 -20 -299 11 -24 23 -43 27
-43 5 0 8 -6 8 -12 0 -25 110 -116 133 -110 4 1 7 -2 7 -7 0 -25 203 -33 260
-11 3 1 8 2 13 1 4 0 7 3 7 8 0 5 9 13 20 16 11 4 31 17 44 30 13 13 26 21 29
19 3 -3 8 4 12 15 3 12 10 21 15 21 13 0 59 100 66 145 10 64 10 80 -1 87 -6
5 -5 8 3 8 8 0 10 5 6 12 -16 25 -22 151 -11 208 13 62 19 79 49 140 32 66
126 170 153 170 8 0 15 4 15 9 0 5 18 16 39 25 37 14 69 20 166 31 22 2 51 6
65 9 13 3 42 8 64 12 22 3 44 8 48 10 8 5 43 14 68 18 9 1 22 6 29 10 8 5 43
19 78 31 54 19 71 21 111 12 26 -5 50 -14 53 -19 3 -5 10 -10 15 -10 11 -1 81
-48 71 -48 -4 0 4 -12 18 -27 14 -15 26 -33 26 -40 2 -15 5 -31 9 -38 1 -3 4
-14 5 -25 1 -11 3 -21 5 -22 1 -2 3 -22 5 -44 4 -65 26 -146 46 -176 11 -14
19 -31 19 -37 0 -6 5 -11 10 -11 6 0 10 -6 10 -14 0 -27 145 -160 181 -168 8
-2 16 -5 19 -9 8 -8 92 -38 130 -45 44 -9 144 -8 190 1 19 4 40 8 47 9 7 1 16
5 19 9 4 4 16 7 26 7 10 0 18 5 18 11 0 5 5 7 10 4 6 -3 10 -1 10 5 0 6 4 9 9
5 5 -3 16 2 24 10 9 8 18 15 21 15 8 0 41 27 86 70 47 45 105 145 126 217 18
61 26 218 13 244 -4 9 -10 27 -12 40 -3 13 -17 49 -31 79 -60 126 -162 216
-301 266 -41 15 -102 25 -162 27 -18 1 -33 5 -33 10 0 4 -4 6 -9 3 -4 -3 -26
3 -47 13 -119 58 -172 197 -118 310 12 25 20 49 18 53 -3 5 0 8 7 8 7 0 9 3 6
6 -3 4 -2 14 3 24 5 9 12 30 14 46 3 16 10 45 16 64 11 37 21 100 25 165 2 22
4 42 5 45 1 3 1 10 0 15 -13 55 -14 299 -1 323 4 9 7 25 6 35 -2 9 1 17 6 17
5 0 8 3 8 8 -3 12 25 72 33 72 4 0 8 5 8 11 0 22 53 79 108 116 31 21 60 42
63 46 3 4 16 9 27 10 12 1 22 4 22 7 0 4 6 7 13 8 6 0 23 3 37 7 14 3 58 8 98
11 101 6 206 47 257 99 89 92 119 266 65 380 -26 54 -120 155 -145 155 -8 0
-15 5 -15 10 0 6 -11 10 -25 10 -14 0 -25 4 -25 8 0 8 -25 11 -105 12 -47 0
-69 -4 -110 -21 -16 -7 -32 -13 -35 -13 -30 -7 -102 -74 -127 -118 -10 -18
-20 -35 -23 -38 -3 -3 -17 -21 -30 -40 -27 -40 -76 -88 -111 -109 -61 -37
-129 -72 -129 -66 0 4 -6 3 -12 -2 -30 -22 -192 -22 -248 1 -22 9 -42 16 -45
16 -14 1 -75 35 -75 42 0 4 -7 8 -15 8 -8 0 -15 5 -15 10 0 6 -7 10 -15 10 -8
0 -15 5 -15 11 0 5 -4 7 -10 4 -5 -3 -10 -2 -10 4 0 6 -11 13 -25 17 -14 3
-25 10 -25 15 0 5 -6 9 -12 9 -7 0 -35 11 -63 24 -27 14 -54 22 -59 19 -5 -4
-6 -1 -2 5 4 7 2 12 -4 12 -28 0 -107 111 -94 132 3 4 1 8 -4 8 -7 0 -9 120
-2 128 1 1 3 5 5 10 9 32 39 76 115 169 6 7 10 15 10 19 0 4 6 15 14 23 8 9
16 25 18 36 1 11 6 23 10 26 5 3 9 17 10 32 1 15 5 27 8 27 4 0 6 18 6 40 -1
22 1 40 4 40 3 0 4 19 3 42 0 24 -2 43 -3 43 -1 0 -3 16 -5 36 -4 36 -42 149
-54 159 -3 3 -12 17 -20 32 -23 46 -143 162 -155 151 -3 -4 -6 -1 -6 6 0 7 -4
10 -8 7 -5 -3 -18 2 -28 12 -11 9 -26 18 -34 20 -8 1 -24 7 -35 11 -45 20 -86
30 -79 20 4 -7 -1 -7 -15 1 -19 10 -155 13 -164 3z"/>
<path d="M4387 2599 c-9 -6 -17 -7 -17 -4 0 3 -21 -6 -47 -19 -52 -26 -107
-80 -125 -124 -39 -93 -21 -213 43 -283 30 -33 115 -83 128 -75 5 4 12 2 15
-2 15 -25 206 18 206 46 0 5 11 15 25 22 14 7 25 19 25 27 0 7 5 13 11 13 5 0
7 5 4 10 -3 6 -2 10 3 10 17 0 47 142 33 155 -3 4 -6 12 -6 18 -2 23 -18 71
-29 85 -44 53 -77 82 -113 101 -24 12 -43 19 -43 16 0 -2 -11 0 -25 5 -16 6
-25 6 -25 0 0 -6 -9 -6 -23 -1 -14 5 -30 5 -40 0z"/>
<path d="M1457 1413 c-47 -16 -107 -60 -107 -79 0 -8 -4 -14 -9 -14 -11 0 -21
-33 -28 -93 -9 -82 45 -169 126 -203 43 -18 140 -11 178 13 29 18 87 80 89 94
1 5 3 10 4 12 2 2 10 58 11 82 1 19 -11 62 -23 87 -16 30 -64 78 -78 78 -5 0
-10 5 -10 12 0 6 -3 8 -6 5 -4 -3 -15 -2 -25 4 -29 15 -80 16 -122 2z"/>
</g>
</svg>
